# File produced by Open Asset Import Library (http://www.assimp.sf.net)
# (assimp v3.1.243586452)

mtllib BoxCrate.mtl

# vertex positions
v -6.590801 7.431627 8.799300
v 6.590801 7.431627 8.799300
v 6.590801 20.613230 8.799300
v -6.590801 20.613230 8.799300
v -9.764415 24.836395 9.764415
v 9.764415 24.836395 9.764415
v 9.764415 24.836395 -9.764415
v -9.764415 24.836395 -9.764415
v -6.590801 20.613230 -8.799300
v 6.590801 20.613230 -8.799300
v 6.590801 7.431627 -8.799300
v -6.590801 7.431627 -8.799300
v -9.764415 3.208461 -9.764415
v 9.764415 3.208461 -9.764415
v 9.764415 3.208461 9.764415
v -9.764415 3.208461 9.764415
v 8.652327 7.461995 6.560430
v 8.652327 7.461995 -6.560430
v 8.652327 20.582859 -6.560430
v 8.652327 20.582859 6.560430
v -8.652327 7.461995 -6.560430
v -8.652327 7.461995 6.560430
v -8.652327 20.582859 6.560430
v -8.652327 20.582859 -6.560430
v -6.590801 7.431627 10.217074
v 6.590801 7.431627 10.217074
v 6.590801 20.613230 10.217074
v -6.590801 20.613230 10.217074
v -6.590801 20.613230 -10.217074
v 6.590801 20.613230 -10.217074
v 6.590801 7.431627 -10.217074
v -6.590801 7.431627 -10.217074
v 10.217074 7.461995 6.560430
v 10.217074 7.461995 -6.560430
v 10.217074 20.582859 -6.560430
v 10.217074 20.582859 6.560430
v -10.217074 7.461995 -6.560430
v -10.217074 7.461995 6.560430
v -10.217074 20.582859 6.560430
v -10.217074 20.582859 -6.560430
v -10.217074 4.030065 10.217074
v 10.217074 4.030065 10.217074
v 10.217074 24.014793 10.217074
v -10.217074 24.014793 10.217074
v -10.217074 24.014793 -10.217074
v 10.217074 24.014793 -10.217074
v 10.217074 4.030065 -10.217074
v -10.217074 4.030065 -10.217074
v -10.081290 24.418552 10.081290
v 10.081290 24.418552 10.081290
v 10.081290 24.418552 -10.081290
v -10.081290 24.418552 -10.081290
v -10.081290 3.626301 -10.081290
v 10.081290 3.626301 -10.081290
v 10.081290 3.626301 10.081290
v -10.081290 3.626301 10.081290
v -10.181685 3.817252 10.181685
v 10.181685 3.817252 10.181685
v 10.181685 3.817252 -10.181685
v -10.181685 24.227600 10.181685
v -10.181685 24.227600 -10.181685
v 10.181685 24.227600 10.181685
v 10.181685 24.227600 -10.181685
v -10.181685 3.817252 -10.181685

# UV coordinates
vt 0.710725 0.702862
vt 0.855718 0.703590
vt 0.855659 0.849993
vt 0.711041 0.849219
vt 0.264686 0.272067
vt 0.478723 0.273865
vt 0.475840 0.484192
vt 0.262619 0.482810
vt 0.710433 0.703073
vt 0.855250 0.703414
vt 0.856010 0.849782
vt 0.711409 0.849663
vt 0.262795 0.727461
vt 0.475517 0.728288
vt 0.473390 0.939097
vt 0.262105 0.937872
vt 0.711003 0.704350
vt 0.855440 0.703872
vt 0.855188 0.848983
vt 0.711112 0.848473
vt 0.711825 0.703550
vt 0.855378 0.705292
vt 0.855696 0.849305
vt 0.710747 0.848628
vt 0.297282 0.074559
vt 0.447559 0.075530
vt 0.438308 0.085806
vt 0.307516 0.083846
vt 0.447163 0.227135
vt 0.436939 0.217875
vt 0.297257 0.226102
vt 0.306486 0.215876
vt 0.293863 0.529532
vt 0.443907 0.530152
vt 0.434732 0.540452
vt 0.304097 0.538843
vt 0.444342 0.681747
vt 0.434102 0.672497
vt 0.294531 0.681420
vt 0.303659 0.671090
vt 0.526600 0.076122
vt 0.678245 0.075725
vt 0.668200 0.087082
vt 0.537900 0.086215
vt 0.677967 0.228140
vt 0.666669 0.217983
vt 0.526434 0.227579
vt 0.536702 0.216228
vt 0.067164 0.071904
vt 0.218099 0.073757
vt 0.207853 0.085016
vt 0.078370 0.082154
vt 0.218178 0.225110
vt 0.206845 0.214933
vt 0.065948 0.224294
vt 0.076094 0.213019
vt 0.258435 0.037205
vt 0.487265 0.038914
vt 0.485837 0.264505
vt 0.257768 0.262606
vt 0.255000 0.492191
vt 0.483313 0.493547
vt 0.483094 0.718924
vt 0.255294 0.718123
vt 0.718385 0.038183
vt 0.717593 0.266051
vt 0.027924 0.033659
vt 0.025428 0.261506
vt 0.259627 0.266958
vt 0.483841 0.268802
vt 0.480923 0.489241
vt 0.257495 0.487882
vt 0.257681 0.722426
vt 0.480631 0.723218
vt 0.478442 0.944148
vt 0.257053 0.942925
vt 0.258510 0.034891
vt 0.487264 0.036599
vt 0.255060 0.944882
vt 0.480398 0.946142
vt 0.717944 0.035860
vt 0.482647 0.721255
vt 0.257704 0.264915
vt 0.025851 0.263832
vt 0.255478 0.489858
vt 0.485833 0.266823
vt 0.482893 0.491234
vt 0.717097 0.268372
vt 0.255701 0.720439
vt 0.028436 0.031341

# vertex normals
vn 0.000000 0.000000 1.000000
vn 0.000000 1.000000 0.000000
vn 0.000000 0.000000 -1.000000
vn 0.000000 -1.000000 0.000000
vn 1.000000 0.000000 0.000000
vn -1.000000 0.000000 0.000000
vn 0.000000 -0.010337 0.999947
vn 0.000000 0.010337 0.999947
vn 0.000000 0.010337 -0.999947
vn -0.000000 -0.010337 -0.999947
vn 0.999947 -0.010271 0.000000
vn 0.999947 0.010271 0.000000
vn -0.999947 -0.010271 0.000000
vn -0.999947 0.010271 0.000000
vn 0.000000 0.543486 0.839418
vn 0.000000 0.604253 0.796792
vn 0.839419 0.543485 0.000000
vn 0.796792 0.604254 0.000000
vn 0.000000 0.543486 -0.839418
vn 0.000000 0.604253 -0.796792
vn -0.839419 0.543485 0.000000
vn -0.796792 0.604254 0.000000
vn 0.000000 -0.543487 -0.839417
vn 0.000000 -0.604258 -0.796789
vn 0.839418 -0.543487 0.000000
vn 0.796789 -0.604258 0.000000
vn 0.000000 -0.543487 0.839417
vn 0.000000 -0.604258 0.796789
vn -0.839418 -0.543487 0.000000
vn -0.796789 -0.604258 0.000000
vn 0.000000 -0.286279 0.958146
vn 0.958146 -0.286280 0.000000
vn -0.958145 0.286283 0.000000
vn 0.000000 0.286282 0.958145
vn 0.000000 0.286282 -0.958145
vn 0.958145 0.286283 0.000000
vn -0.958146 -0.286280 0.000000
vn 0.000000 -0.286279 -0.958146

# Mesh
g pCube1
usemtl initialShadingGroup
f 4/4/1 1/1/1 2/2/1
f 2/2/1 3/3/1 4/4/1
f 8/8/2 5/5/2 6/6/2
f 6/6/2 7/7/2 8/8/2
f 12/12/3 9/9/3 10/10/3
f 10/10/3 11/11/3 12/12/3
f 16/16/4 13/13/4 14/14/4
f 14/14/4 15/15/4 16/16/4
f 20/20/5 17/17/5 18/18/5
f 18/18/5 19/19/5 20/20/5
f 24/24/6 21/21/6 22/22/6
f 22/22/6 23/23/6 24/24/6
f 1/28/2 25/25/2 26/26/2
f 26/26/2 2/27/2 1/28/2
f 2/27/6 26/26/6 27/29/6
f 27/29/6 3/30/6 2/27/6
f 3/30/4 27/29/4 28/31/4
f 28/31/4 4/32/4 3/30/4
f 4/32/5 28/31/5 25/25/5
f 25/25/5 1/28/5 4/32/5
f 9/36/4 29/33/4 30/34/4
f 30/34/4 10/35/4 9/36/4
f 10/35/6 30/34/6 31/37/6
f 31/37/6 11/38/6 10/35/6
f 11/38/2 31/37/2 32/39/2
f 32/39/2 12/40/2 11/38/2
f 12/40/5 32/39/5 29/33/5
f 29/33/5 9/36/5 12/40/5
f 17/44/2 33/41/2 34/42/2
f 34/42/2 18/43/2 17/44/2
f 18/43/1 34/42/1 35/45/1
f 35/45/1 19/46/1 18/43/1
f 19/46/4 35/45/4 36/47/4
f 36/47/4 20/48/4 19/46/4
f 20/48/3 36/47/3 33/41/3
f 33/41/3 17/44/3 20/48/3
f 21/52/2 37/49/2 38/50/2
f 38/50/2 22/51/2 21/52/2
f 22/51/3 38/50/3 39/53/3
f 39/53/3 23/54/3 22/51/3
f 23/54/4 39/53/4 40/55/4
f 40/55/4 24/56/4 23/54/4
f 24/56/1 40/55/1 37/49/1
f 37/49/1 21/52/1 24/56/1
f 25/25/1 41/57/7 42/58/7
f 42/58/7 26/26/1 25/25/1
f 26/26/1 42/58/7 43/59/8
f 43/59/8 27/29/1 26/26/1
f 27/29/1 43/59/8 44/60/8
f 44/60/8 28/31/1 27/29/1
f 28/31/1 44/60/8 41/57/7
f 41/57/7 25/25/1 28/31/1
f 29/33/3 45/61/9 46/62/9
f 46/62/9 30/34/3 29/33/3
f 30/34/3 46/62/9 47/63/10
f 47/63/10 31/37/3 30/34/3
f 31/37/3 47/63/10 48/64/10
f 48/64/10 32/39/3 31/37/3
f 32/39/3 48/64/10 45/61/9
f 45/61/9 29/33/3 32/39/3
f 33/41/5 42/58/11 47/65/11
f 47/65/11 34/42/5 33/41/5
f 34/42/5 47/65/11 46/66/12
f 46/66/12 35/45/5 34/42/5
f 35/45/5 46/66/12 43/59/12
f 43/59/12 36/47/5 35/45/5
f 36/47/5 43/59/12 42/58/11
f 42/58/11 33/41/5 36/47/5
f 37/49/6 48/67/13 41/57/13
f 41/57/13 38/50/6 37/49/6
f 38/50/6 41/57/13 44/60/14
f 44/60/14 39/53/6 38/50/6
f 39/53/6 44/60/14 45/68/14
f 45/68/14 40/55/6 39/53/6
f 40/55/6 45/68/14 48/67/13
f 48/67/13 37/49/6 40/55/6
f 5/5/16 49/69/15 50/70/15
f 50/70/15 6/6/16 5/5/16
f 6/6/18 50/70/17 51/71/17
f 51/71/17 7/7/18 6/6/18
f 7/7/20 51/71/19 52/72/19
f 52/72/19 8/8/20 7/7/20
f 8/8/22 52/72/21 49/69/21
f 49/69/21 5/5/22 8/8/22
f 13/13/24 53/73/23 54/74/23
f 54/74/23 14/14/24 13/13/24
f 14/14/26 54/74/25 55/75/25
f 55/75/25 15/15/26 14/14/26
f 15/15/28 55/75/27 56/76/27
f 56/76/27 16/16/28 15/15/28
f 16/16/30 56/76/29 53/73/29
f 53/73/29 13/13/30 16/16/30
f 42/58/7 41/57/7 57/77/31
f 57/77/31 58/78/31 42/58/7
f 58/80/31 57/79/31 56/76/27
f 56/76/27 55/75/27 58/80/31
f 47/65/11 42/58/11 58/78/32
f 58/78/32 59/81/32 47/65/11
f 59/82/32 58/80/32 55/75/25
f 55/75/25 54/74/25 59/82/32
f 45/68/14 44/60/14 60/83/33
f 60/83/33 61/84/33 45/68/14
f 61/85/33 60/83/33 49/69/21
f 49/69/21 52/72/21 61/85/33
f 50/70/15 49/69/15 60/83/34
f 60/83/34 62/86/34 50/70/15
f 62/86/34 60/83/34 44/60/8
f 44/60/8 43/59/8 62/86/34
f 46/62/9 45/61/9 61/85/35
f 61/85/35 63/87/35 46/62/9
f 63/87/35 61/85/35 52/72/19
f 52/72/19 51/71/19 63/87/35
f 51/71/17 50/70/17 62/86/36
f 62/86/36 63/87/36 51/71/17
f 63/88/36 62/86/36 43/59/12
f 43/59/12 46/66/12 63/88/36
f 53/73/29 56/76/29 57/79/37
f 57/79/37 64/89/37 53/73/29
f 64/90/37 57/77/37 41/57/13
f 41/57/13 48/67/13 64/90/37
f 54/74/23 53/73/23 64/89/38
f 64/89/38 59/82/38 54/74/23
f 59/82/38 64/89/38 48/64/10
f 48/64/10 47/63/10 59/82/38
